ply
format ascii 1.0
element vertex 988
property float x
property float y
property float z
property uchar red
property uchar green
property uchar blue
element face 0
property list uchar int vertex_indices
end_header
-9.573381 7.384339 -17.989128 243 247 251
-8.792331 7.416509 -18.04881 240 245 248
-7.980643 7.4273043 -18.056627 239 244 247
-7.126666 7.3973265 -17.965874 239 243 247
-6.2380643 7.31971 -17.76028 234 238 244
-5.388222 7.2717714 -17.626614 228 234 239
-4.5586576 7.239881 -17.531822 224 230 237
-3.7895918 7.31116 -17.685417 216 223 232
-3.0718424 7.5466495 -18.233353 208 216 226
-2.3242376 7.858351 -18.963118 206 216 225
-1.4986495 8.126798 -19.587576 204 213 225
-0.60437495 8.287738 -19.953083 197 206 220
0.32302156 8.3486805 -20.078407 195 206 220
1.2607077 8.38278 -20.139227 198 208 221
2.2016249 8.397456 -20.15347 198 207 221
3.1448457 8.407878 -20.157469 194 205 220
4.099232 8.435546 -20.20252 194 204 219
5.0631795 8.46795 -20.258698 192 202 218
6.028538 8.491193 -20.292908 191 201 219
7.013094 8.530922 -20.366167 188 200 217
8.003186 8.5663805 -20.42908 190 202 219
8.996546 8.59675 -20.479734 189 202 219
9.990646 8.621316 -20.516472 189 201 218
10.972894 8.631626 -20.519339 188 201 217
11.9491 8.635399 -20.506687 188 201 218
12.920252 8.634784 -20.483639 188 200 217
-9.121817 6.529986 -17.885645 233 239 242
-8.321215 6.5414524 -17.899422 232 236 240
-7.503471 6.5409837 -17.88069 230 234 240
-6.6553035 6.5112743 -17.782557 229 233 239
-5.7868786 6.451489 -17.602995 224 230 235
-4.959236 6.425833 -17.51622 220 226 233
-4.1650524 6.4426374 -17.544508 212 220 227
-3.4233608 6.5682535 -17.866964 211 218 227
-2.7052724 6.83223 -18.562542 208 216 226
-1.9228858 7.104271 -19.278465 200 209 221
-1.0594982 7.294566 -19.772509 199 208 220
-0.14535818 7.3897505 -20.009321 195 204 218
0.7867796 7.4192667 -20.0689 195 203 217
1.7252355 7.441022 -20.107439 195 204 218
2.6674368 7.455978 -20.12759 194 205 218
3.618881 7.4810934 -20.174902 192 203 217
4.5794754 7.5098276 -20.231766 192 203 218
5.5445437 7.533854 -20.275852 191 202 217
6.519565 7.5616784 -20.329956 193 203 219
7.504316 7.5915976 -20.389494 190 201 216
8.495802 7.620176 -20.445278 191 202 217
9.492128 7.646275 -20.49428 193 205 220
10.481313 7.6617417 -20.514801 195 206 221
11.463552 7.6694193 -20.514492 194 204 220
12.435705 7.6691833 -20.49309 193 203 219
13.454619 7.695546 -20.542318 191 202 217
-9.291403 5.5675435 -17.438528 225 230 233
-8.612001 5.6426644 -17.65592 225 229 233
-7.8259845 5.6566257 -17.682947 223 228 231
-7.016949 5.655774 -17.663929 219 223 229
-6.1771226 5.627308 -17.55931 217 221 229
-5.3457494 5.5999017 -17.458122 213 218 225
-4.5419106 5.5974927 -17.434416 208 214 221
-3.789792 5.6718745 -17.64806 207 214 223
-3.064251 5.8375607 -18.143202 202 209 220
-2.3177164 6.072724 -18.851719 203 211 221
-1.4964284 6.279687 -19.47194 198 207 219
-0.60618097 6.397613 -19.816776 197 206 218
0.3160701 6.4552326 -19.975391 198 207 219
1.2491618 6.4780526 -20.026695 196 205 219
2.1880035 6.4961457 -20.063343 193 203 217
3.1359303 6.5209045 -20.120316 185 195 211
4.096186 6.552921 -20.199373 188 199 214
5.0594 6.5756946 -20.249926 198 206 220
6.0298433 6.5983663 -20.300024 198 207 221
7.008878 6.622275 -20.353748 199 208 222
8.00325 6.6526356 -20.42702 195 206 219
8.996929 6.6753273 -20.476704 196 204 218
9.98463 6.6890087 -20.498783 198 209 222
10.975094 6.7014737 -20.517063 196 207 220
11.9430685 6.6987166 -20.488958 194 204 220
12.938087 6.7101126 -20.503859 192 203 216
-8.8297205 4.733482 -17.292358 223 227 231
-8.104042 4.7701063 -17.410173 218 223 226
-7.3230767 4.7790384 -17.427547 220 225 228
-6.5024714 4.7616777 -17.349792 216 222 227
-5.6542025 4.717115 -17.173876 211 217 223
-4.8779454 4.7285795 -17.200426 210 216 223
-4.1153073 4.7609615 -17.302317 203 211 217
-3.3835154 4.8536296 -17.621193 201 209 217
-2.66847 5.0364265 -18.263906 200 207 218
-1.8960341 5.2307367 -18.946869 200 207 217
-1.0478891 5.375145 -19.44928 198 208 218
-0.14854693 5.4594846 -19.735104 198 207 217
0.7745054 5.503152 -19.87449 196 205 217
1.7072744 5.527503 -19.944353 198 207 219
2.650678 5.555302 -20.026396 192 200 214
3.6078763 5.5887914 -20.128601 182 192 210
4.5723557 5.616232 -20.20896 186 197 212
5.5428457 5.639443 -20.274021 183 194 211
6.5173173 5.6584983 -20.324091 173 185 203
7.4981594 5.676828 -20.371439 185 195 210
8.494528 5.7008934 -20.439081 205 212 224
9.489465 5.718586 -20.483873 204 213 225
10.480232 5.730167 -20.506807 203 212 224
11.464654 5.736096 -20.509571 202 211 223
12.446132 5.7392864 -20.502562 201 210 222
13.484469 5.7661586 -20.57949 195 204 217
-8.95937 3.8274984 -16.796154 215 219 223
-8.27233 3.863573 -16.940025 215 220 223
-7.5313663 3.8796394 -16.996807 219 223 226
-6.728644 3.8643618 -16.917542 214 220 223
-5.8772397 3.8141165 -16.686838 213 219 224
-5.120508 3.820201 -16.700361 211 217 222
-4.387935 3.8503075 -16.817759 208 214 221
-3.6588578 3.897759 -17.009928 203 210 219
-2.9607916 4.013514 -17.496828 199 206 215
-2.236983 4.168542 -18.152458 192 201 211
-1.4441416 4.305777 -18.730295 194 203 215
-0.5926476 4.4238687 -19.224688 190 199 211
0.30497125 4.502874 -19.549944 190 199 213
1.2306728 4.5638275 -19.796974 192 202 213
2.1630285 4.583533 -19.866224 194 202 216
3.1157377 4.620514 -20.00954 193 202 214
4.0750012 4.646564 -20.105669 195 204 216
5.049622 4.6761837 -20.216911 197 204 218
6.023877 4.695195 -20.282467 163 176 197
7.006114 4.7136683 -20.345572 157 169 192
7.990702 4.7284145 -20.392582 161 174 195
8.983522 4.7437806 -20.442123 169 181 200
9.983339 4.7589836 -20.490843 208 215 226
10.977284 4.7684054 -20.514763 209 216 227
11.959259 4.771001 -20.509481 206 213 224
12.97005 4.7835298 -20.546503 206 213 223
-8.350127 2.9759352 -16.336348 205 210 215
-7.6411424 2.9893365 -16.398808 206 213 218
-6.871257 2.979568 -16.335655 206 212 217
-6.0345597 2.9353552 -16.086102 206 212 217
-5.2907596 2.9311292 -16.053154 204 213 217
-4.5848594 2.9506278 -16.148493 202 210 217
-3.865894 2.9683473 -16.234068 202 210 216
-3.1889086 3.035197 -16.5848 198 205 214
-2.5099216 3.1422367 -17.151937 194 204 213
-1.7922809 3.2778354 -17.87234 191 200 212
-1.0026789 3.4035912 -18.538752 191 200 212
-0.1474695 3.503592 -19.065567 190 199 211
0.75407696 3.5776715 -19.452156 189 198 212
1.6864598 3.6346192 -19.746065 192 201 213
2.6294227 3.6638026 -19.890308 190 199 213
3.582749 3.6870277 -20.002325 192 201 215
4.552259 3.71286 -20.12816 192 201 215
5.5242977 3.7305324 -20.210016 194 203 215
6.5057225 3.7476704 -20.288868 198 205 217
7.4862957 3.7592468 -20.33778 202 209 220
8.480149 3.773548 -20.401184 206 212 221
9.482911 3.7879534 -20.465027 208 214 223
10.482061 3.7978294 -20.504524 214 219 228
11.467203 3.8008385 -20.50724 213 218 227
12.436634 3.7980773 -20.479092 210 216 225
13.506481 3.8241084 -20.60462 207 214 223
-8.422933 2.1499221 -15.77526 193 201 209
-7.660485 2.1366465 -15.673345 195 202 208
-6.947308 2.136369 -15.665238 194 201 210
-6.2049265 2.1264074 -15.587306 192 202 210
-5.4695015 2.1171253 -15.514313 193 202 212
-4.7845397 2.1282728 -15.588533 195 204 214
-4.0967298 2.1425 -15.684855 194 203 213
-3.410323 2.164467 -15.836797 192 201 211
-2.751283 2.2213006 -16.239473 192 201 212
-2.0840094 2.3121474 -16.886452 192 201 211
-1.3772659 2.4419882 -17.81325 189 199 210
-0.573532 2.535515 -18.478312 190 199 211
0.29235905 2.6074522 -18.987732 192 201 213
1.199502 2.65924 -19.35203 190 199 212
2.1407757 2.7079694 -19.694065 191 200 212
3.0961585 2.7381315 -19.902578 191 200 212
4.056683 2.756484 -20.0262 192 201 213
5.028374 2.7731364 -20.137514 194 203 215
5.9996114 2.783382 -20.2028 195 204 216
6.9692006 2.7893772 -20.237564 199 206 217
7.9653554 2.8027775 -20.3253 199 208 218
8.986774 2.8207467 -20.445644 204 211 220
10.001319 2.8326705 -20.522615 207 214 223
10.982901 2.833321 -20.518879 206 214 222
11.922061 2.8231997 -20.43811 207 213 222
12.898585 2.822508 -20.424772 205 212 222
-5.149743 0.9016983 -10.103398 153 149 139
-4.832761 0.92919827 -10.400785 100 79 79
-4.9691916 1.0618299 -11.832229 95 82 83
-5.6942444 1.3705008 -15.162902 159 164 174
-4.9863205 1.365775 -15.113099 180 192 204
-4.3336678 1.377979 -15.245951 152 153 158
-3.6526387 1.3846905 -15.319562 183 195 210
-2.9850738 1.4018608 -15.506048 186 197 210
-2.298057 1.4188101 -15.69018 188 198 212
-1.2286541 1.1106176 -12.365261 90 92 97
-0.6570702 1.1125358 -12.386944 94 97 101
-0.08307939 1.1244812 -12.51687 84 86 90
0.50450784 1.1362257 -12.644649 89 91 95
1.1070096 1.1495223 -12.789207 81 83 89
1.7292991 1.1661274 -12.969516 94 97 101
3.5427318 1.7978369 -19.791534 189 198 210
4.529771 1.820385 -20.036613 191 200 212
5.485817 1.8235506 -20.072424 193 202 214
5.5508347 1.5658052 -17.290329 111 109 111
6.0331516 1.4799589 -16.364496 102 104 108
6.879552 1.4948901 -16.527117 175 184 190
7.829143 1.5269796 -16.875128 141 152 161
8.602783 1.5206228 -16.807835 145 154 163
9.611639 1.5540403 -17.170284 181 187 192
10.490427 1.5618912 -17.256533 214 207 199
11.256332 1.5522588 -17.153866 228 225 217
-5.177054 0.42117637 -9.72379 192 194 182
-4.7444286 0.42113566 -9.7371 91 96 95
-4.332164 0.4234649 -9.801202 155 157 153
-3.935635 0.42842183 -9.921845 53 46 48
-3.5615296 0.43788216 -10.139534 94 74 72
-3.1440356 0.44397786 -10.28559 96 73 74
-2.773045 0.46076253 -10.662214 191 191 193
-2.4141111 0.4876383 -11.257552 149 146 128
-2.3825922 0.6170627 -14.068821 193 198 210
-1.7915062 0.63735366 -14.528798 187 197 208
-0.939287 0.5333609 -12.298732 102 112 115
-0.36806485 0.5318591 -12.284864 155 163 163
0.20465606 0.5349586 -12.370957 96 99 101
0.7869464 0.5380268 -12.456682 114 121 122
1.3786131 0.54098487 -12.540327 102 113 118
2.34027 0.6519506 -14.981314 138 133 135
3.3357413 0.71735626 -16.43415 153 144 141
4.938896 0.8691233 -19.78212 165 170 179
4.857703 0.71022654 -16.329279 192 197 197
5.6362877 0.70958203 -16.34083 216 219 220
5.6078057 0.61439043 -14.272968 62 60 45
5.968807 0.58018076 -13.542007 51 47 29
8.207156 0.7277681 -16.820063 160 172 183
7.715431 0.61637294 -14.385169 61 63 51
6.942351 0.5015055 -11.865649 48 43 30
8.159124 0.54682237 -12.889553 93 94 97
-4.8336945 -0.025408879 -9.476906 199 200 187
-4.4199166 -0.0266125 -9.508755 199 200 188
-3.9607542 -0.02789059 -9.443399 59 66 66
-3.3845942 -0.029320579 -9.057357 201 214 219
-3.0163665 -0.030452201 -9.19155 122 133 132
-2.690071 -0.031573363 -9.517637 148 151 147
-1.5161357 -0.033197794 -6.4754267 116 121 124
-1.4537067 -0.034060888 -7.672608 123 126 126
-1.4759715 -0.035427075 -10.174573 121 113 106
-1.214681 -0.037325222 -12.185935 163 170 169
-0.64794815 -0.038931463 -12.155535 158 166 163
-0.08269112 -0.040542606 -12.141108 147 153 153
0.48562595 -0.04220859 -12.207286 144 149 150
1.0733227 -0.044010863 -12.414783 120 127 130
1.6674047 -0.04576677 -12.509144 132 139 141
2.749587 -0.050468523 -15.3111315 66 42 38
3.4859192 -0.0526155 -15.3767 49 23 14
4.297712 -0.055120647 -15.690683 161 169 173
4.9322777 -0.05674278 -15.348071 160 170 175
5.1786766 -0.056694206 -14.0280075 20 20 9
5.67557 -0.0578807 -13.613275 75 68 47
6.4627066 -0.060305133 -13.909625 44 42 32
7.5833793 -0.06402548 -14.801524 134 138 138
6.3787875 -0.05861018 -11.364694 56 52 40
6.4585123 -0.05839725 -10.592512 45 46 46
5.4713244 -0.05425924 -8.300766 36 39 43
-4.8110437 -0.4395344 -9.031472 171 169 158
-4.5134745 -0.45137516 -9.255551 184 185 172
-4.103585 -0.45411465 -9.27693 196 198 182
-2.3427854 -0.30452564 -5.9529243 186 188 190
-1.5553551 -0.23957275 -4.5075684 134 136 144
-1.3376429 -0.23866296 -4.46886 106 110 120
-1.1324928 -0.2394007 -4.466151 96 100 108
-0.92360353 -0.2394149 -4.4477916 86 91 100
-0.71821654 -0.24005699 -4.4430366 112 118 125
-0.5123519 -0.2405655 -4.4354115 104 110 121
-0.31202993 -0.24419601 -4.4943724 154 153 156
-0.34226793 -0.5713209 -11.422112 88 87 84
0.18239318 -0.54539526 -10.826415 150 131 114
0.7053624 -0.56160074 -11.122757 128 111 103
1.1934344 -0.549058 -10.813635 163 160 167
1.6315174 -0.5293948 -10.358243 175 182 190
2.1942682 -0.54953074 -10.734238 151 157 164
3.2929554 -0.66730845 -13.129373 166 162 163
4.3536468 -0.74220836 -14.620208 88 85 83
4.9355645 -0.72917277 -14.292268 89 87 77
5.364527 -0.70050913 -13.647155 40 35 22
6.050819 -0.70717067 -13.726869 32 28 21
6.4072113 -0.6794171 -13.107507 78 74 58
2.8652585 -0.29510662 -5.288289 53 54 58
3.076729 -0.29253197 -5.214894 76 84 90
3.2975428 -0.2911765 -5.166474 46 50 55
-3.6557746 -0.6871242 -7.1843767 126 110 80
-3.405764 -0.7034979 -7.343828 139 121 92
-1.7403358 -0.41900373 -4.216665 191 190 185
-1.516976 -0.4124188 -4.133314 173 172 171
-1.3201712 -0.41114527 -4.1080766 166 167 168
-1.1280545 -0.41078258 -4.0928135 153 156 156
-0.9349312 -0.4096891 -4.069711 141 144 146
-0.744987 -0.40932024 -4.054511 131 135 139
-0.55764365 -0.40999764 -4.050602 157 163 168
-0.37202358 -0.41234526 -4.0645742 93 77 81
-0.19218709 -0.42697686 -4.209647 161 163 167
-0.031389825 -0.71632075 -7.2800417 84 69 52
0.30676267 -0.71484184 -7.2442284 199 189 181
0.6451728 -0.7164376 -7.2411284 202 191 177
0.9812247 -0.7158468 -7.214895 163 153 146
1.3163724 -0.7155933 -7.192303 166 160 153
1.670255 -0.72382754 -7.2589493 166 161 149
2.0483212 -0.738076 -7.388178 207 196 183
2.4397843 -0.7524547 -7.517999 202 190 172
2.850145 -0.76837164 -7.6630716 203 191 174
3.3030357 -0.7908177 -7.875119 150 141 128
3.7372363 -0.8050182 -8.000505 150 146 142
2.7229521 -0.5416365 -5.2571254 133 138 145
2.89312 -0.5287276 -5.1096153 129 135 140
3.091604 -0.52246684 -5.0311923 119 125 130
3.3095486 -0.5201014 -4.9930778 114 119 122
-3.480315 -0.92987436 -6.5537834 179 181 178
-3.1980371 -0.93582636 -6.582178 181 184 180
-1.7716193 -0.59230804 -4.070247 193 186 185
-1.5568045 -0.5833353 -3.9958856 110 111 110
-1.377505 -0.58560383 -4.0031743 129 130 131
-1.1900821 -0.584788 -3.9881394 75 81 99
-1.0063301 -0.58541703 -3.9835553 151 159 158
-0.8208736 -0.5850132 -3.9715457 131 134 136
-0.63907236 -0.5870423 -3.9770079 106 110 114
-0.4572295 -0.59012634 -3.9899683 107 112 115
-0.2728887 -0.5918454 -3.9931023 125 130 133
-0.11389217 -0.6991584 -4.748019 21 23 27
0.1293377 -0.9642375 -6.6201453 180 184 180
0.43506065 -0.95813495 -6.561704 179 181 179
0.74376917 -0.9622167 -6.575503 173 175 173
1.0578738 -0.9693426 -6.610673 166 167 166
1.3864114 -0.9838025 -6.69726 166 169 167
1.7354378 -1.0049233 -6.8301816 168 171 167
2.0945134 -1.0244786 -6.95148 170 171 170
2.4585764 -1.0410105 -7.051043 180 183 181
2.8288438 -1.0560709 -7.139842 185 186 183
3.2031524 -1.0694318 -7.216362 184 186 184
2.6408563 -0.80249655 -5.3467674 79 81 84
2.761823 -0.7676021 -5.092786 99 103 107
2.9701405 -0.76018715 -5.0298157 47 52 53
3.1899927 -0.75663584 -4.99374 46 50 54
-3.2943773 -1.2181107 -6.4760256 175 176 173
-2.6714258 -1.0923772 -5.777822 158 157 152
-1.6088192 -0.74951386 -3.9020185 99 100 101
-1.4233354 -0.7471025 -3.8809528 91 94 94
-1.2407686 -0.74548686 -3.8642607 91 94 94
-1.0648676 -0.7474507 -3.866956 96 98 99
-0.8864767 -0.7480748 -3.8623953 96 99 99
-0.71210694 -0.752541 -3.878506 92 95 97
-0.5355848 -0.756798 -3.8934054 86 89 91
-0.35836342 -0.76314783 -3.9194372 111 116 119
-0.18202604 -0.7817008 -4.0105977 98 101 103
-0.024064701 -1.242304 -6.460434 181 181 176
0.27661937 -1.2409823 -6.4400854 165 165 160
0.5762925 -1.2398287 -6.4206786 172 172 167
0.87845886 -1.2437778 -6.4283795 162 163 157
1.194111 -1.2605481 -6.5038695 161 161 156
1.5244497 -1.2830856 -6.609473 163 163 157
1.8668133 -1.3065397 -6.719434 157 157 152
2.2195225 -1.3295145 -6.8263807 161 161 156
2.576722 -1.3491584 -6.9153624 163 163 158
2.9219384 -1.359016 -6.952673 165 165 159
3.2696242 -1.3680767 -6.9856253 164 164 159
2.6631114 -1.0166919 -5.13819 75 78 80
2.819595 -0.9875957 -4.9760723 58 61 63
3.0433738 -0.9845072 -4.949701 67 70 70
3.2414522 -0.97438586 -4.8869543 102 105 104
-3.0457716 -1.3464042 -5.7408767 163 156 147
-2.6484225 -1.285112 -5.4629207 211 216 218
-1.687581 -0.9228791 -3.8773682 40 22 27
-1.4915342 -0.91324747 -3.828186 79 80 81
-1.3118954 -0.91155344 -3.8135567 85 86 86
-1.1336786 -0.9102584 -3.8006885 86 89 89
-0.9577128 -0.91029227 -3.7935848 93 95 95
-0.78249127 -0.9109127 -3.789015 90 93 93
-0.6090905 -0.9140263 -3.7951615 90 93 95
-0.43677306 -0.9210148 -3.8178897 32 16 21
-0.2615833 -0.92720836 -3.8371072 117 36 49
-0.09682357 -1.0181074 -4.2182684 107 110 113
0.1188759 -1.4093287 -5.879078 212 200 185
0.39233872 -1.4069474 -5.8576508 209 193 168
0.6688294 -1.4141378 -5.8769493 212 195 170
0.9512408 -1.4265426 -5.9182596 208 190 164
1.2437702 -1.4454564 -5.9869323 206 189 164
1.5484279 -1.4691027 -6.0753026 200 180 152
1.8551937 -1.487155 -6.1397123 197 183 161
2.164693 -1.5023662 -6.1918836 211 197 175
2.4584188 -1.5044692 -6.1887608 199 186 166
2.7594888 -1.5103011 -6.201249 208 194 172
2.8323438 -1.4028543 -5.7396755 175 173 166
2.7274265 -1.2347968 -5.026745 75 78 78
2.8916106 -1.2050623 -4.8930774 151 152 147
3.0679994 -1.1845412 -4.7982297 125 130 130
-2.4779184 -1.3781263 -4.891527 217 221 219
-1.7376754 -1.0778456 -3.794588 55 56 57
-1.5527219 -1.071514 -3.7648265 62 63 64
-1.3773788 -1.070496 -3.7543383 63 66 66
-1.2039282 -1.0706232 -3.7479975 63 64 64
-1.0292716 -1.0694766 -3.7370794 62 63 64
-0.8590694 -1.0727903 -3.7421985 58 60 60
-0.6893641 -1.0781345 -3.7545588 69 72 70
-0.5175779 -1.0826266 -3.7638073 82 85 85
-0.34609276 -1.0914712 -3.788547 19 25 30
-0.17416473 -1.1115137 -3.8530948 50 54 58
-0.0072404314 -1.4032136 -4.883987 76 81 82
0.22019061 -1.4018703 -4.870302 75 80 81
0.4489447 -1.4073725 -4.880912 90 95 95
0.67720926 -1.4082667 -4.875152 103 106 104
0.9103206 -1.4168283 -4.896472 104 106 104
1.1460637 -1.4254042 -4.917739 82 85 85
1.3767291 -1.4258984 -4.9104633 87 89 91
1.6052471 -1.42452 -4.8966107 102 103 103
1.8431246 -1.4309602 -4.9101987 137 137 130
2.0650272 -1.4250504 -4.8804903 132 132 125
2.280088 -1.4162409 -4.840737 120 119 115
2.5112257 -1.4182299 -4.8387575 118 120 116
2.7318218 -1.4145643 -4.817081 125 127 121
2.885035 -1.3795819 -4.6866655 111 114 106
3.0704098 -1.363918 -4.623697 83 81 75
-2.3779974 -1.4761189 -4.4992824 191 197 200
-2.1927984 -1.4905784 -4.5363703 120 109 84
-1.6872241 -1.2784863 -3.8708453 2 1 4
-1.5303199 -1.2959195 -3.9180646 27 25 22
-1.36463 -1.3098125 -3.954161 3 3 1
-1.1900724 -1.3184983 -3.9740517 60 58 54
-1.0257814 -1.3425066 -4.0410323 16 17 19
-0.84604126 -1.3536763 -4.068299 -1 1 5
-0.64576405 -1.3322395 -3.9954054 3 5 9
-0.4489053 -1.303528 -3.9004679 4 4 5
-0.26500565 -1.2931904 -3.8620229 4 4 7
-0.09764626 -1.4072475 -4.2033563 48 50 53
0.098133706 -1.4066188 -4.194056 71 74 75
0.29331145 -1.4044983 -4.180231 74 79 79
0.4869474 -1.3999367 -4.1590242 78 82 84
0.6801961 -1.3976908 -4.1448903 95 98 98
0.8735658 -1.3969631 -4.1353793 100 103 105
1.0655186 -1.3948234 -4.121618 72 77 78
1.2466773 -1.3813831 -4.073819 87 90 90
1.4353004 -1.3790485 -4.0595884 81 84 86
1.6294948 -1.3821685 -4.0617743 69 71 74
1.8065603 -1.3716829 -4.0231357 98 101 101
1.9910264 -1.3684331 -4.0062733 114 115 116
2.1788576 -1.3679647 -3.997761 160 160 155
2.3419511 -1.3534143 -3.9472606 112 114 109
2.5126953 -1.3452065 -3.9158032 92 93 90
-2.02892 -1.5083463 -4.0195165 121 122 120
-1.8397497 -1.5053775 -4.0046716 121 123 119
-1.6203191 -1.4755476 -3.917094 27 26 25
-1.4364429 -1.4727399 -3.9028723 17 17 20
-1.2583747 -1.47541 -3.903469 5 6 8
-1.0752258 -1.4722807 -3.8884165 5 7 9
-0.8930345 -1.4692199 -3.8735814 7 8 11
-0.71010494 -1.4630917 -3.8505406 8 11 13
-0.52724 -1.453045 -3.8170538 14 15 18
-0.34693357 -1.4427127 -3.7828984 13 17 18
-0.16893855 -1.4298632 -3.7421165 31 35 37
0.005678159 -1.4184077 -3.7051752 69 73 75
0.17764361 -1.410536 -3.6778872 71 76 75
0.3472893 -1.4015826 -3.647799 85 88 88
0.5140817 -1.3911614 -3.6139026 57 60 62
0.6805878 -1.3859547 -3.5939202 96 99 99
0.8489889 -1.3863554 -3.58882 89 92 92
1.009178 -1.3752916 -3.5534513 79 81 81
1.1596148 -1.356019 -3.4965525 79 82 82
1.3219552 -1.3542005 -3.4857569 68 69 69
1.4747224 -1.3440965 -3.4532197 75 78 78
1.6176198 -1.3280057 -3.40508 73 74 75
1.7543764 -1.3103863 -3.3530903 85 85 88
1.928151 -1.3212166 -3.375603 89 89 90
2.069054 -1.3096476 -3.3395936 99 99 97
2.234829 -1.3144023 -3.3462 132 131 128
-1.8559437 -1.4898171 -3.5299373 77 78 77
-1.7194211 -1.5116105 -3.5766926 77 76 76
-1.5541729 -1.5113462 -3.5701528 67 69 67
-1.3844643 -1.5063385 -3.552214 54 55 54
-1.2213887 -1.5075996 -3.5493667 54 55 54
-1.0581356 -1.5088602 -3.5465124 52 55 54
-0.8905273 -1.5035971 -3.5280437 60 61 61
-0.7208409 -1.4919976 -3.4944856 41 44 46
-0.5537243 -1.4801259 -3.460375 46 49 49
-0.38820952 -1.46454 -3.417521 70 73 73
-0.22603926 -1.4478316 -3.3721273 53 55 57
-0.06772434 -1.4316612 -3.3281457 56 59 59
0.08696557 -1.4178518 -3.2898884 69 72 71
0.23859139 -1.4047427 -3.2534 70 72 72
0.38647577 -1.3886484 -3.2099721 54 55 55
0.53110397 -1.3736808 -3.1693306 83 86 83
0.67572296 -1.3659546 -3.145848 65 68 68
0.82145166 -1.3632514 -3.134228 105 108 107
0.9561638 -1.345589 -3.087556 111 112 111
1.098629 -1.3425968 -3.075368 91 93 92
1.2429167 -1.3424301 -3.0698097 85 86 85
1.391958 -1.3470421 -3.0754046 87 86 85
1.4763105 -1.2936741 -2.9459293 97 100 98
1.5403591 -1.2334992 -2.801051 102 103 102
1.6367416 -1.2071061 -2.7350626 90 90 91
1.7276161 -1.180975 -2.669892 91 92 93
0.0 0.0 0.0 0 0 0
0.0 0.0 0.0 0 0 0
0.0 0.0 0.0 0 0 0
0.0 0.0 0.0 0 0 0
0.0 0.0 0.0 0 0 0
0.0 0.0 0.0 0 0 0
0.0 0.0 0.0 0 0 0
0.0 0.0 0.0 0 0 0
0.0 0.0 0.0 0 0 0
0.0 0.0 0.0 0 0 0
0.0 0.0 0.0 0 0 0
0.0 0.0 0.0 0 0 0
0.0 0.0 0.0 0 0 0
0.0 0.0 0.0 0 0 0
0.0 0.0 0.0 0 0 0
0.0 0.0 0.0 0 0 0
0.0 0.0 0.0 0 0 0
0.0 0.0 0.0 0 0 0
0.0 0.0 0.0 0 0 0
0.0 0.0 0.0 0 0 0
0.0 0.0 0.0 0 0 0
0.0 0.0 0.0 0 0 0
0.0 0.0 0.0 0 0 0
0.0 0.0 0.0 0 0 0
0.0 0.0 0.0 0 0 0
0.0 0.0 0.0 0 0 0
0.0 0.0 0.0 0 0 0
0.0 0.0 0.0 0 0 0
0.0 0.0 0.0 0 0 0
0.0 0.0 0.0 0 0 0
0.0 0.0 0.0 0 0 0
0.0 0.0 0.0 0 0 0
0.0 0.0 0.0 0 0 0
0.0 0.0 0.0 0 0 0
0.0 0.0 0.0 0 0 0
0.0 0.0 0.0 0 0 0
0.0 0.0 0.0 0 0 0
0.0 0.0 0.0 0 0 0
0.0 0.0 0.0 0 0 0
0.0 0.0 0.0 0 0 0
0.0 0.0 0.0 0 0 0
0.0 0.0 0.0 0 0 0
0.0 0.0 0.0 0 0 0
0.0 0.0 0.0 0 0 0
0.0 0.0 0.0 0 0 0
0.0 0.0 0.0 0 0 0
0.0 0.0 0.0 0 0 0
0.0 0.0 0.0 0 0 0
0.0 0.0 0.0 0 0 0
0.0 0.0 0.0 0 0 0
0.0 0.0 0.0 0 0 0
0.0 0.0 0.0 0 0 0
0.0 0.0 0.0 0 0 0
0.0 0.0 0.0 0 0 0
0.0 0.0 0.0 0 0 0
0.0 0.0 0.0 0 0 0
0.0 0.0 0.0 0 0 0
0.0 0.0 0.0 0 0 0
0.0 0.0 0.0 0 0 0
0.0 0.0 0.0 0 0 0
0.0 0.0 0.0 0 0 0
0.0 0.0 0.0 0 0 0
0.0 0.0 0.0 0 0 0
0.0 0.0 0.0 0 0 0
0.0 0.0 0.0 0 0 0
0.0 0.0 0.0 0 0 0
0.0 0.0 0.0 0 0 0
0.0 0.0 0.0 0 0 0
0.0 0.0 0.0 0 0 0
0.0 0.0 0.0 0 0 0
0.0 0.0 0.0 0 0 0
0.0 0.0 0.0 0 0 0
0.0 0.0 0.0 0 0 0
0.0 0.0 0.0 0 0 0
0.0 0.0 0.0 0 0 0
0.0 0.0 0.0 0 0 0
0.0 0.0 0.0 0 0 0
0.0 0.0 0.0 0 0 0
0.0 0.0 0.0 0 0 0
0.0 0.0 0.0 0 0 0
0.0 0.0 0.0 0 0 0
0.0 0.0 0.0 0 0 0
0.0 0.0 0.0 0 0 0
0.0 0.0 0.0 0 0 0
0.0 0.0 0.0 0 0 0
0.0 0.0 0.0 0 0 0
0.0 0.0 0.0 0 0 0
0.0 0.0 0.0 0 0 0
0.0 0.0 0.0 0 0 0
0.0 0.0 0.0 0 0 0
0.0 0.0 0.0 0 0 0
0.0 0.0 0.0 0 0 0
0.0 0.0 0.0 0 0 0
0.0 0.0 0.0 0 0 0
0.0 0.0 0.0 0 0 0
0.0 0.0 0.0 0 0 0
0.0 0.0 0.0 0 0 0
0.0 0.0 0.0 0 0 0
0.0 0.0 0.0 0 0 0
0.0 0.0 0.0 0 0 0
0.0 0.0 0.0 0 0 0
0.0 0.0 0.0 0 0 0
0.0 0.0 0.0 0 0 0
0.0 0.0 0.0 0 0 0
0.0 0.0 0.0 0 0 0
0.0 0.0 0.0 0 0 0
0.0 0.0 0.0 0 0 0
0.0 0.0 0.0 0 0 0
0.0 0.0 0.0 0 0 0
0.0 0.0 0.0 0 0 0
0.0 0.0 0.0 0 0 0
0.0 0.0 0.0 0 0 0
0.0 0.0 0.0 0 0 0
0.0 0.0 0.0 0 0 0
0.0 0.0 0.0 0 0 0
0.0 0.0 0.0 0 0 0
0.0 0.0 0.0 0 0 0
0.0 0.0 0.0 0 0 0
0.0 0.0 0.0 0 0 0
0.0 0.0 0.0 0 0 0
0.0 0.0 0.0 0 0 0
0.0 0.0 0.0 0 0 0
0.0 0.0 0.0 0 0 0
0.0 0.0 0.0 0 0 0
0.0 0.0 0.0 0 0 0
0.0 0.0 0.0 0 0 0
0.0 0.0 0.0 0 0 0
0.0 0.0 0.0 0 0 0
0.0 0.0 0.0 0 0 0
0.0 0.0 0.0 0 0 0
0.0 0.0 0.0 0 0 0
0.0 0.0 0.0 0 0 0
0.0 0.0 0.0 0 0 0
0.0 0.0 0.0 0 0 0
0.0 0.0 0.0 0 0 0
0.0 0.0 0.0 0 0 0
0.0 0.0 0.0 0 0 0
0.0 0.0 0.0 0 0 0
0.0 0.0 0.0 0 0 0
0.0 0.0 0.0 0 0 0
0.0 0.0 0.0 0 0 0
0.0 0.0 0.0 0 0 0
0.0 0.0 0.0 0 0 0
0.0 0.0 0.0 0 0 0
0.0 0.0 0.0 0 0 0
0.0 0.0 0.0 0 0 0
0.0 0.0 0.0 0 0 0
0.0 0.0 0.0 0 0 0
0.0 0.0 0.0 0 0 0
0.0 0.0 0.0 0 0 0
0.0 0.0 0.0 0 0 0
0.0 0.0 0.0 0 0 0
0.0 0.0 0.0 0 0 0
0.0 0.0 0.0 0 0 0
0.0 0.0 0.0 0 0 0
0.0 0.0 0.0 0 0 0
0.0 0.0 0.0 0 0 0
0.0 0.0 0.0 0 0 0
0.0 0.0 0.0 0 0 0
0.0 0.0 0.0 0 0 0
0.0 0.0 0.0 0 0 0
0.0 0.0 0.0 0 0 0
0.0 0.0 0.0 0 0 0
0.0 0.0 0.0 0 0 0
0.0 0.0 0.0 0 0 0
0.0 0.0 0.0 0 0 0
0.0 0.0 0.0 0 0 0
0.0 0.0 0.0 0 0 0
0.0 0.0 0.0 0 0 0
0.0 0.0 0.0 0 0 0
0.0 0.0 0.0 0 0 0
0.0 0.0 0.0 0 0 0
0.0 0.0 0.0 0 0 0
0.0 0.0 0.0 0 0 0
0.0 0.0 0.0 0 0 0
0.0 0.0 0.0 0 0 0
0.0 0.0 0.0 0 0 0
0.0 0.0 0.0 0 0 0
0.0 0.0 0.0 0 0 0
0.0 0.0 0.0 0 0 0
0.0 0.0 0.0 0 0 0
0.0 0.0 0.0 0 0 0
0.0 0.0 0.0 0 0 0
0.0 0.0 0.0 0 0 0
0.0 0.0 0.0 0 0 0
0.0 0.0 0.0 0 0 0
0.0 0.0 0.0 0 0 0
0.0 0.0 0.0 0 0 0
0.0 0.0 0.0 0 0 0
0.0 0.0 0.0 0 0 0
0.0 0.0 0.0 0 0 0
0.0 0.0 0.0 0 0 0
0.0 0.0 0.0 0 0 0
0.0 0.0 0.0 0 0 0
0.0 0.0 0.0 0 0 0
0.0 0.0 0.0 0 0 0
0.0 0.0 0.0 0 0 0
0.0 0.0 0.0 0 0 0
0.0 0.0 0.0 0 0 0
0.0 0.0 0.0 0 0 0
0.0 0.0 0.0 0 0 0
0.0 0.0 0.0 0 0 0
0.0 0.0 0.0 0 0 0
0.0 0.0 0.0 0 0 0
0.0 0.0 0.0 0 0 0
0.0 0.0 0.0 0 0 0
0.0 0.0 0.0 0 0 0
0.0 0.0 0.0 0 0 0
0.0 0.0 0.0 0 0 0
0.0 0.0 0.0 0 0 0
0.0 0.0 0.0 0 0 0
0.0 0.0 0.0 0 0 0
0.0 0.0 0.0 0 0 0
0.0 0.0 0.0 0 0 0
0.0 0.0 0.0 0 0 0
0.0 0.0 0.0 0 0 0
0.0 0.0 0.0 0 0 0
0.0 0.0 0.0 0 0 0
0.0 0.0 0.0 0 0 0
0.0 0.0 0.0 0 0 0
0.0 0.0 0.0 0 0 0
0.0 0.0 0.0 0 0 0
0.0 0.0 0.0 0 0 0
0.0 0.0 0.0 0 0 0
0.0 0.0 0.0 0 0 0
0.0 0.0 0.0 0 0 0
0.0 0.0 0.0 0 0 0
0.0 0.0 0.0 0 0 0
0.0 0.0 0.0 0 0 0
0.0 0.0 0.0 0 0 0
0.0 0.0 0.0 0 0 0
0.0 0.0 0.0 0 0 0
0.0 0.0 0.0 0 0 0
0.0 0.0 0.0 0 0 0
0.0 0.0 0.0 0 0 0
0.0 0.0 0.0 0 0 0
0.0 0.0 0.0 0 0 0
0.0 0.0 0.0 0 0 0
0.0 0.0 0.0 0 0 0
0.0 0.0 0.0 0 0 0
0.0 0.0 0.0 0 0 0
0.0 0.0 0.0 0 0 0
0.0 0.0 0.0 0 0 0
0.0 0.0 0.0 0 0 0
0.0 0.0 0.0 0 0 0
0.0 0.0 0.0 0 0 0
0.0 0.0 0.0 0 0 0
0.0 0.0 0.0 0 0 0
0.0 0.0 0.0 0 0 0
0.0 0.0 0.0 0 0 0
0.0 0.0 0.0 0 0 0
0.0 0.0 0.0 0 0 0
0.0 0.0 0.0 0 0 0
0.0 0.0 0.0 0 0 0
0.0 0.0 0.0 0 0 0
0.0 0.0 0.0 0 0 0
0.0 0.0 0.0 0 0 0
0.0 0.0 0.0 0 0 0
0.0 0.0 0.0 0 0 0
0.0 0.0 0.0 0 0 0
0.0 0.0 0.0 0 0 0
0.0 0.0 0.0 0 0 0
0.0 0.0 0.0 0 0 0
0.0 0.0 0.0 0 0 0
0.0 0.0 0.0 0 0 0
0.0 0.0 0.0 0 0 0
0.0 0.0 0.0 0 0 0
0.0 0.0 0.0 0 0 0
0.0 0.0 0.0 0 0 0
0.0 0.0 0.0 0 0 0
0.0 0.0 0.0 0 0 0
0.0 0.0 0.0 0 0 0
0.0 0.0 0.0 0 0 0
0.0 0.0 0.0 0 0 0
0.0 0.0 0.0 0 0 0
0.0 0.0 0.0 0 0 0
0.0 0.0 0.0 0 0 0
0.0 0.0 0.0 0 0 0
0.0 0.0 0.0 0 0 0
0.0 0.0 0.0 0 0 0
0.0 0.0 0.0 0 0 0
0.0 0.0 0.0 0 0 0
0.0 0.0 0.0 0 0 0
0.0 0.0 0.0 0 0 0
0.0 0.0 0.0 0 0 0
0.0 0.0 0.0 0 0 0
0.0 0.0 0.0 0 0 0
0.0 0.0 0.0 0 0 0
0.0 0.0 0.0 0 0 0
0.0 0.0 0.0 0 0 0
0.0 0.0 0.0 0 0 0
0.0 0.0 0.0 0 0 0
0.0 0.0 0.0 0 0 0
0.0 0.0 0.0 0 0 0
0.0 0.0 0.0 0 0 0
0.0 0.0 0.0 0 0 0
0.0 0.0 0.0 0 0 0
0.0 0.0 0.0 0 0 0
0.0 0.0 0.0 0 0 0
0.0 0.0 0.0 0 0 0
0.0 0.0 0.0 0 0 0
0.0 0.0 0.0 0 0 0
0.0 0.0 0.0 0 0 0
0.0 0.0 0.0 0 0 0
0.0 0.0 0.0 0 0 0
0.0 0.0 0.0 0 0 0
0.0 0.0 0.0 0 0 0
0.0 0.0 0.0 0 0 0
0.0 0.0 0.0 0 0 0
0.0 0.0 0.0 0 0 0
0.0 0.0 0.0 0 0 0
0.0 0.0 0.0 0 0 0
0.0 0.0 0.0 0 0 0
0.0 0.0 0.0 0 0 0
0.0 0.0 0.0 0 0 0
0.0 0.0 0.0 0 0 0
0.0 0.0 0.0 0 0 0
0.0 0.0 0.0 0 0 0
0.0 0.0 0.0 0 0 0
0.0 0.0 0.0 0 0 0
0.0 0.0 0.0 0 0 0
0.0 0.0 0.0 0 0 0
0.0 0.0 0.0 0 0 0
0.0 0.0 0.0 0 0 0
0.0 0.0 0.0 0 0 0
0.0 0.0 0.0 0 0 0
0.0 0.0 0.0 0 0 0
0.0 0.0 0.0 0 0 0
0.0 0.0 0.0 0 0 0
0.0 0.0 0.0 0 0 0
0.0 0.0 0.0 0 0 0
0.0 0.0 0.0 0 0 0
0.0 0.0 0.0 0 0 0
0.0 0.0 0.0 0 0 0
0.0 0.0 0.0 0 0 0
0.0 0.0 0.0 0 0 0
0.0 0.0 0.0 0 0 0
0.0 0.0 0.0 0 0 0
0.0 0.0 0.0 0 0 0
0.0 0.0 0.0 0 0 0
0.0 0.0 0.0 0 0 0
0.0 0.0 0.0 0 0 0
0.0 0.0 0.0 0 0 0
0.0 0.0 0.0 0 0 0
0.0 0.0 0.0 0 0 0
0.0 0.0 0.0 0 0 0
0.0 0.0 0.0 0 0 0
0.0 0.0 0.0 0 0 0
0.0 0.0 0.0 0 0 0
0.0 0.0 0.0 0 0 0
0.0 0.0 0.0 0 0 0
0.0 0.0 0.0 0 0 0
0.0 0.0 0.0 0 0 0
0.0 0.0 0.0 0 0 0
0.0 0.0 0.0 0 0 0
0.0 0.0 0.0 0 0 0
0.0 0.0 0.0 0 0 0
0.0 0.0 0.0 0 0 0
0.0 0.0 0.0 0 0 0
0.0 0.0 0.0 0 0 0
0.0 0.0 0.0 0 0 0
0.0 0.0 0.0 0 0 0
0.0 0.0 0.0 0 0 0
0.0 0.0 0.0 0 0 0
0.0 0.0 0.0 0 0 0
0.0 0.0 0.0 0 0 0
0.0 0.0 0.0 0 0 0
0.0 0.0 0.0 0 0 0
0.0 0.0 0.0 0 0 0
0.0 0.0 0.0 0 0 0
0.0 0.0 0.0 0 0 0
0.0 0.0 0.0 0 0 0
0.0 0.0 0.0 0 0 0
0.0 0.0 0.0 0 0 0
0.0 0.0 0.0 0 0 0
0.0 0.0 0.0 0 0 0
0.0 0.0 0.0 0 0 0
0.0 0.0 0.0 0 0 0
0.0 0.0 0.0 0 0 0
0.0 0.0 0.0 0 0 0
0.0 0.0 0.0 0 0 0
0.0 0.0 0.0 0 0 0
0.0 0.0 0.0 0 0 0
0.0 0.0 0.0 0 0 0
0.0 0.0 0.0 0 0 0
0.0 0.0 0.0 0 0 0
0.0 0.0 0.0 0 0 0
0.0 0.0 0.0 0 0 0
0.0 0.0 0.0 0 0 0
0.0 0.0 0.0 0 0 0
0.0 0.0 0.0 0 0 0
0.0 0.0 0.0 0 0 0
0.0 0.0 0.0 0 0 0
0.0 0.0 0.0 0 0 0
0.0 0.0 0.0 0 0 0
0.0 0.0 0.0 0 0 0
0.0 0.0 0.0 0 0 0
0.0 0.0 0.0 0 0 0
0.0 0.0 0.0 0 0 0
0.0 0.0 0.0 0 0 0
0.0 0.0 0.0 0 0 0
0.0 0.0 0.0 0 0 0
0.0 0.0 0.0 0 0 0
0.0 0.0 0.0 0 0 0
0.0 0.0 0.0 0 0 0
0.0 0.0 0.0 0 0 0
0.0 0.0 0.0 0 0 0
0.0 0.0 0.0 0 0 0
0.0 0.0 0.0 0 0 0
0.0 0.0 0.0 0 0 0
0.0 0.0 0.0 0 0 0
0.0 0.0 0.0 0 0 0
0.0 0.0 0.0 0 0 0
0.0 0.0 0.0 0 0 0
0.0 0.0 0.0 0 0 0
0.0 0.0 0.0 0 0 0
0.0 0.0 0.0 0 0 0
0.0 0.0 0.0 0 0 0
0.0 0.0 0.0 0 0 0
0.0 0.0 0.0 0 0 0
0.0 0.0 0.0 0 0 0
0.0 0.0 0.0 0 0 0
0.0 0.0 0.0 0 0 0
0.0 0.0 0.0 0 0 0
0.0 0.0 0.0 0 0 0
0.0 0.0 0.0 0 0 0
0.0 0.0 0.0 0 0 0
0.0 0.0 0.0 0 0 0
0.0 0.0 0.0 0 0 0
0.0 0.0 0.0 0 0 0
0.0 0.0 0.0 0 0 0
0.0 0.0 0.0 0 0 0
0.0 0.0 0.0 0 0 0
0.0 0.0 0.0 0 0 0
0.0 0.0 0.0 0 0 0
0.0 0.0 0.0 0 0 0
0.0 0.0 0.0 0 0 0
0.0 0.0 0.0 0 0 0
0.0 0.0 0.0 0 0 0
0.0 0.0 0.0 0 0 0
0.0 0.0 0.0 0 0 0
0.0 0.0 0.0 0 0 0
0.0 0.0 0.0 0 0 0
0.0 0.0 0.0 0 0 0
0.0 0.0 0.0 0 0 0
0.0 0.0 0.0 0 0 0
0.0 0.0 0.0 0 0 0
0.0 0.0 0.0 0 0 0
0.0 0.0 0.0 0 0 0
0.0 0.0 0.0 0 0 0
0.0 0.0 0.0 0 0 0
0.0 0.0 0.0 0 0 0
0.0 0.0 0.0 0 0 0
0.0 0.0 0.0 0 0 0
0.0 0.0 0.0 0 0 0
0.0 0.0 0.0 0 0 0
0.0 0.0 0.0 0 0 0
0.0 0.0 0.0 0 0 0
0.0 0.0 0.0 0 0 0
0.0 0.0 0.0 0 0 0
0.0 0.0 0.0 0 0 0
0.0 0.0 0.0 0 0 0
0.0 0.0 0.0 0 0 0
0.0 0.0 0.0 0 0 0
0.0 0.0 0.0 0 0 0
0.0 0.0 0.0 0 0 0
0.0 0.0 0.0 0 0 0
0.0 0.0 0.0 0 0 0
0.0 0.0 0.0 0 0 0
0.0 0.0 0.0 0 0 0
0.0 0.0 0.0 0 0 0
0.0 0.0 0.0 0 0 0
0.0 0.0 0.0 0 0 0
0.0 0.0 0.0 0 0 0
0.0 0.0 0.0 0 0 0
0.0 0.0 0.0 0 0 0
0.0 0.0 0.0 0 0 0
0.0 0.0 0.0 0 0 0
0.0 0.0 0.0 0 0 0
0.0 0.0 0.0 0 0 0
0.0 0.0 0.0 0 0 0
0.0 0.0 0.0 0 0 0
0.0 0.0 0.0 0 0 0
0.0 0.0 0.0 0 0 0
0.0 0.0 0.0 0 0 0
0.0 0.0 0.0 0 0 0
0.0 0.0 0.0 0 0 0
0.0 0.0 0.0 0 0 0
0.0 0.0 0.0 0 0 0
0.0 0.0 0.0 0 0 0
0.0 0.0 0.0 0 0 0
0.0 0.0 0.0 0 0 0
0.0 0.0 0.0 0 0 0
0.0 0.0 0.0 0 0 0
